<svg fill="#000000" xmlns="http://www.w3.org/2000/svg"  viewBox="0 0 100 100" width="100px" height="100px"><path fill="none" stroke="#000000" stroke-linecap="round" stroke-linejoin="round" stroke-miterlimit="10" stroke-width="2" d="M18,83	h65V18H18V83z"/><line x1="21.5" x2="22.5" y1="50.5" y2="50.5" fill="none" stroke="#000000" stroke-linecap="round" stroke-miterlimit="10"/><line x1="25.5" x2="26.5" y1="50.5" y2="50.5" fill="none" stroke="#000000" stroke-linecap="round" stroke-miterlimit="10"/><line x1="29.5" x2="30.5" y1="50.5" y2="50.5" fill="none" stroke="#000000" stroke-linecap="round" stroke-miterlimit="10"/><line x1="33.5" x2="34.5" y1="50.5" y2="50.5" fill="none" stroke="#000000" stroke-linecap="round" stroke-miterlimit="10"/><line x1="41.5" x2="42.5" y1="50.5" y2="50.5" fill="none" stroke="#000000" stroke-linecap="round" stroke-miterlimit="10"/><line x1="45.5" x2="46.5" y1="50.5" y2="50.5" fill="none" stroke="#000000" stroke-linecap="round" stroke-miterlimit="10"/><line x1="58.5" x2="59.5" y1="50.5" y2="50.5" fill="none" stroke="#000000" stroke-linecap="round" stroke-miterlimit="10"/><line x1="54.5" x2="55.5" y1="50.5" y2="50.5" fill="none" stroke="#000000" stroke-linecap="round" stroke-miterlimit="10"/><line x1="49.5" x2="51.5" y1="50.5" y2="50.5" fill="none" stroke="#000000" stroke-linecap="round" stroke-miterlimit="10"/><line x1="62.5" x2="63.5" y1="50.5" y2="50.5" fill="none" stroke="#000000" stroke-linecap="round" stroke-miterlimit="10"/><line x1="66.5" x2="67.5" y1="50.5" y2="50.5" fill="none" stroke="#000000" stroke-linecap="round" stroke-miterlimit="10"/><line x1="70.5" x2="71.5" y1="50.5" y2="50.5" fill="none" stroke="#000000" stroke-linecap="round" stroke-miterlimit="10"/><line x1="74.5" x2="75.5" y1="50.5" y2="50.5" fill="none" stroke="#000000" stroke-linecap="round" stroke-miterlimit="10"/><line x1="78.5" x2="79.5" y1="50.5" y2="50.5" fill="none" stroke="#000000" stroke-linecap="round" stroke-miterlimit="10"/><line x1="37.5" x2="38.5" y1="50.5" y2="50.5" fill="none" stroke="#000000" stroke-linecap="round" stroke-miterlimit="10"/><g><line x1="50.5" x2="50.5" y1="79.5" y2="78.5" fill="none" stroke="#000000" stroke-linecap="round" stroke-miterlimit="10"/><line x1="50.5" x2="50.5" y1="75.5" y2="74.5" fill="none" stroke="#000000" stroke-linecap="round" stroke-miterlimit="10"/><line x1="50.5" x2="50.5" y1="71.5" y2="70.5" fill="none" stroke="#000000" stroke-linecap="round" stroke-miterlimit="10"/><line x1="50.5" x2="50.5" y1="67.5" y2="66.5" fill="none" stroke="#000000" stroke-linecap="round" stroke-miterlimit="10"/><polyline fill="none" stroke="#000000" stroke-linecap="round" stroke-miterlimit="10" points="50.5,63.5 50.5,63.5 50.5,62.5"/><line x1="50.5" x2="50.5" y1="59.5" y2="58.5" fill="none" stroke="#000000" stroke-linecap="round" stroke-miterlimit="10"/><line x1="50.5" x2="50.5" y1="55.5" y2="54.5" fill="none" stroke="#000000" stroke-linecap="round" stroke-miterlimit="10"/><line x1="50.5" x2="50.5" y1="51.5" y2="49.5" fill="none" stroke="#000000" stroke-linecap="round" stroke-miterlimit="10"/><line x1="50.5" x2="50.5" y1="46.5" y2="45.5" fill="none" stroke="#000000" stroke-linecap="round" stroke-miterlimit="10"/><line x1="50.5" x2="50.5" y1="42.5" y2="41.5" fill="none" stroke="#000000" stroke-linecap="round" stroke-miterlimit="10"/><line x1="50.5" x2="50.5" y1="38.5" y2="37.5" fill="none" stroke="#000000" stroke-linecap="round" stroke-miterlimit="10"/><line x1="50.5" x2="50.5" y1="34.5" y2="33.5" fill="none" stroke="#000000" stroke-linecap="round" stroke-miterlimit="10"/><line x1="50.5" x2="50.5" y1="30.5" y2="29.5" fill="none" stroke="#000000" stroke-linecap="round" stroke-miterlimit="10"/><line x1="50.5" x2="50.5" y1="26.5" y2="25.5" fill="none" stroke="#000000" stroke-linecap="round" stroke-miterlimit="10"/><line x1="50.5" x2="50.5" y1="22.5" y2="21.5" fill="none" stroke="#000000" stroke-linecap="round" stroke-miterlimit="10"/></g></svg>