<svg fill="#000000" xmlns="http://www.w3.org/2000/svg"  viewBox="0 0 64 64" width="256px" height="256px"><path d="M58.599,5.053c-1.556-1.555-4.085-1.655-5.76-0.227L26.545,27.272c-1.292-0.479-2.78-0.282-3.915,0.646l-5.574,4.56c-0.825-0.048-1.666,0.231-2.296,0.861c-0.96,0.96-1.13,2.4-0.52,3.54c-2.31,0.29-4.46,1.32-6.14,3c-3.29,3.28-3.02,6.37-2.79,9.09c0.24,2.78,0.46,5.39-2.74,8.6c-0.26,0.26-0.36,0.65-0.25,1c0.11,0.35,0.41,0.62,0.77,0.69c3.5,0.66,6.39,1,8.87,1c5.12,0,8.47-1.48,11.76-4.77c1.67-1.67,2.7-3.82,2.99-6.11c0.45,0.25,0.95,0.39,1.48,0.39c0.8,0,1.56-0.31,2.12-0.88c0.57-0.56,0.88-1.32,0.88-2.12c0-0.059-0.014-0.116-0.017-0.175l4.56-5.573c0.929-1.135,1.126-2.623,0.647-3.915l22.446-26.294C60.254,9.139,60.155,6.609,58.599,5.053z M22.3,54.08c-3.64,3.65-7.24,5.15-17.09,3.52c2.57-3.29,2.32-6.19,2.09-8.8c-0.22-2.62-0.41-4.88,2.21-7.51c1.72-1.72,4.06-2.6,6.49-2.47l2.804,2.804l-2.439,1.463c-0.474,0.284-0.627,0.898-0.343,1.372c0.188,0.312,0.519,0.485,0.858,0.485c0.175,0,0.353-0.046,0.514-0.143l2.867-1.721l0.352,0.352l-2.507,5.014c-0.247,0.494-0.047,1.095,0.447,1.342c0.144,0.072,0.296,0.105,0.446,0.105c0.367,0,0.72-0.202,0.896-0.553l2.209-4.417L24.78,47.6C24.89,50.02,24.02,52.36,22.3,54.08z M28.9,47.48c-0.38,0.38-1.04,0.38-1.41,0l-0.78-0.78l-1.77-1.77l-6.29-6.28l-1.77-1.77l-0.71-0.71c-0.39-0.39-0.39-1.03,0-1.42c0.2-0.19,0.45-0.29,0.71-0.29c0.254,0,0.498,0.099,0.696,0.281l5.738,5.738L28.9,46.07c0.19,0.18,0.29,0.44,0.29,0.7C29.19,47.04,29.09,47.29,28.9,47.48z M34.185,39.755l-3.945,4.822L19.075,33.412l4.822-3.945c0.798-0.653,1.951-0.596,2.681,0.134l7.475,7.474C34.781,37.804,34.838,38.957,34.185,39.755z M57.304,9.514L35.206,35.401l-6.955-6.955L54.137,6.348c0.885-0.756,2.224-0.703,3.047,0.12C58.008,7.291,58.06,8.629,57.304,9.514z"/><path d="M23.951 31.216l-1.415 1.414c-.391.39-.391 1.023 0 1.414.195.195.451.293.707.293s.512-.098.707-.293l1.415-1.414c.391-.39.391-1.023 0-1.414S24.341 30.826 23.951 31.216zM27.486 34.752l-1.414 1.414c-.391.391-.391 1.023 0 1.414.195.195.451.293.707.293s.512-.098.707-.293l1.414-1.414c.391-.391.391-1.023 0-1.414S27.876 34.361 27.486 34.752zM31.021 38.288l-1.414 1.414c-.391.391-.391 1.023 0 1.414.195.195.451.293.707.293s.512-.098.707-.293l1.414-1.414c.391-.391.391-1.023 0-1.414S31.412 37.897 31.021 38.288z"/></svg>