<svg fill="#000000" xmlns="http://www.w3.org/2000/svg"  viewBox="0 0 128 128" width="180px" height="180px"><path d="M64,6c-15.5,0-30.1,6-41,17C12,33.9,6,48.5,6,64s6,30.1,17,41c11,11,25.5,17,41,17s30.1-6,41-17c11-11,17-25.5,17-41s-6-30.1-17-41C94.1,12,79.5,6,64,6z M100.8,100.8C90.9,110.6,77.9,116,64,116s-26.9-5.4-36.8-15.2S12,77.9,12,64s5.4-26.9,15.2-36.8S50.1,12,64,12s26.9,5.4,36.8,15.2S116,50.1,116,64S110.6,90.9,100.8,100.8z"/><path d="M79.6,48.4c-1.2-1.2-3.1-1.2-4.2,0L64,59.8L52.7,48.4c-1.2-1.2-3.1-1.2-4.2,0c-1.2,1.2-1.2,3.1,0,4.2L59.8,64L48.4,75.3c-1.2,1.2-1.2,3.1,0,4.2c0.6,0.6,1.4,0.9,2.1,0.9s1.5-0.3,2.1-0.9L64,68.2l11.3,11.3c0.6,0.6,1.4,0.9,2.1,0.9s1.5-0.3,2.1-0.9c1.2-1.2,1.2-3.1,0-4.2L68.2,64l11.3-11.3C80.7,51.5,80.7,49.6,79.6,48.4z"/></svg>