<svg fill="#000000" xmlns="http://www.w3.org/2000/svg"  viewBox="0 0 30 30" width="180px" height="180px"><path fill="none" stroke="#000000" stroke-linecap="round" stroke-linejoin="round" stroke-miterlimit="10" stroke-width="2" d="M8.275,25.275l-4.549-4.549c-0.953-0.953-0.953-2.498,0-3.451L17.275,3.725c0.953-0.953,2.498-0.953,3.451,0l4.549,4.549c0.953,0.953,0.953,2.498,0,3.451L11.725,25.275C10.772,26.228,9.228,26.228,8.275,25.275z"/><path d="M18,19l-8-8l7.275-7.275c0.953-0.953,2.498-0.953,3.451,0l4.549,4.549c0.953,0.953,0.953,2.498,0,3.451L18,19z"/><path fill="none" stroke="#000000" stroke-linecap="round" stroke-linejoin="round" stroke-miterlimit="10" stroke-width="2" d="M18 26L10 26"/><path d="M22 25A1 1 0 1 0 22 27 1 1 0 1 0 22 25zM26 25A1 1 0 1 0 26 27 1 1 0 1 0 26 25z"/></svg>