<svg fill="#000000" xmlns="http://www.w3.org/2000/svg"  viewBox="0 0 80 80" width="160px" height="160px"><path d="M43 42A1 1 0 1 0 43 44 1 1 0 1 0 43 42zM46 39A1 1 0 1 0 46 41 1 1 0 1 0 46 39zM49 36A1 1 0 1 0 49 38 1 1 0 1 0 49 36zM46 45A1 1 0 1 0 46 47 1 1 0 1 0 46 45zM49 48A1 1 0 1 0 49 50 1 1 0 1 0 49 48zM52 51A1 1 0 1 0 52 53 1 1 0 1 0 52 51zM49 42A1 1 0 1 0 49 44 1 1 0 1 0 49 42zM52 39A1 1 0 1 0 52 41 1 1 0 1 0 52 39zM52 45A1 1 0 1 0 52 47 1 1 0 1 0 52 45zM37 54A1 1 0 1 0 37 56 1 1 0 1 0 37 54zM34 51A1 1 0 1 0 34 53 1 1 0 1 0 34 51zM34 57A1 1 0 1 0 34 59 1 1 0 1 0 34 57zM40 15A1 1 0 1 0 40 17 1 1 0 1 0 40 15zM43 12A1 1 0 1 0 43 14 1 1 0 1 0 43 12zM37 12A1 1 0 1 0 37 14 1 1 0 1 0 37 12zM43 18A1 1 0 1 0 43 20 1 1 0 1 0 43 18zM37 18A1 1 0 1 0 37 20 1 1 0 1 0 37 18zM49 24A1 1 0 1 0 49 26 1 1 0 1 0 49 24zM46 33A1 1 0 1 0 46 35 1 1 0 1 0 46 33zM49 30A1 1 0 1 0 49 32 1 1 0 1 0 49 30zM52 21A1 1 0 1 0 52 23 1 1 0 1 0 52 21zM52 27A1 1 0 1 0 52 29 1 1 0 1 0 52 27zM52 33A1 1 0 1 0 52 35 1 1 0 1 0 52 33zM34 15A1 1 0 1 0 34 17 1 1 0 1 0 34 15zM34 9A1 1 0 1 0 34 11 1 1 0 1 0 34 9zM37 66A1 1 0 1 0 37 68 1 1 0 1 0 37 66zM52 63A1 1 0 1 0 52 65 1 1 0 1 0 52 63zM58 39A1 1 0 1 0 58 41 1 1 0 1 0 58 39zM61 36A1 1 0 1 0 61 38 1 1 0 1 0 61 36zM55 36A1 1 0 1 0 55 38 1 1 0 1 0 55 36zM58 45A1 1 0 1 0 58 47 1 1 0 1 0 58 45zM61 42A1 1 0 1 0 61 44 1 1 0 1 0 61 42zM55 42A1 1 0 1 0 55 44 1 1 0 1 0 55 42zM58 51A1 1 0 1 0 58 53 1 1 0 1 0 58 51zM61 48A1 1 0 1 0 61 50 1 1 0 1 0 61 48zM55 48A1 1 0 1 0 55 50 1 1 0 1 0 55 48zM58 57A1 1 0 1 0 58 59 1 1 0 1 0 58 57zM61 54A1 1 0 1 0 61 56 1 1 0 1 0 61 54zM64 39A1 1 0 1 0 64 41 1 1 0 1 0 64 39zM67 36A1 1 0 1 0 67 38 1 1 0 1 0 67 36zM64 45A1 1 0 1 0 64 47 1 1 0 1 0 64 45zM67 42A1 1 0 1 0 67 44 1 1 0 1 0 67 42zM64 51A1 1 0 1 0 64 53 1 1 0 1 0 64 51zM67 48A1 1 0 1 0 67 50 1 1 0 1 0 67 48zM64 57A1 1 0 1 0 64 59 1 1 0 1 0 64 57zM67 54A1 1 0 1 0 67 56 1 1 0 1 0 67 54zM70 39A1 1 0 1 0 70 41 1 1 0 1 0 70 39zM70 45A1 1 0 1 0 70 47 1 1 0 1 0 70 45zM55 54A1 1 0 1 0 55 56 1 1 0 1 0 55 54zM40 45A1 1 0 1 0 40 47 1 1 0 1 0 40 45zM43 48A1 1 0 1 0 43 50 1 1 0 1 0 43 48zM46 51A1 1 0 1 0 46 53 1 1 0 1 0 46 51zM49 54A1 1 0 1 0 49 56 1 1 0 1 0 49 54zM52 57A1 1 0 1 0 52 59 1 1 0 1 0 52 57zM37 48A1 1 0 1 0 37 50 1 1 0 1 0 37 48zM40 51A1 1 0 1 0 40 53 1 1 0 1 0 40 51zM43 54A1 1 0 1 0 43 56 1 1 0 1 0 43 54zM46 57A1 1 0 1 0 46 59 1 1 0 1 0 46 57zM49 60A1 1 0 1 0 49 62 1 1 0 1 0 49 60zM40 57A1 1 0 1 0 40 59 1 1 0 1 0 40 57zM43 60A1 1 0 1 0 43 62 1 1 0 1 0 43 60zM46 63A1 1 0 1 0 46 65 1 1 0 1 0 46 63zM37 60A1 1 0 1 0 37 62 1 1 0 1 0 37 60zM40 63A1 1 0 1 0 40 65 1 1 0 1 0 40 63zM43 66A1 1 0 1 0 43 68 1 1 0 1 0 43 66zM49 66A1 1 0 1 0 49 68 1 1 0 1 0 49 66zM46 69A1 1 0 1 0 46 71 1 1 0 1 0 46 69zM40 69A1 1 0 1 0 40 71 1 1 0 1 0 40 69zM58 15A1 1 0 1 0 58 17 1 1 0 1 0 58 15zM58 21A1 1 0 1 0 58 23 1 1 0 1 0 58 21zM61 18A1 1 0 1 0 61 20 1 1 0 1 0 61 18zM55 18A1 1 0 1 0 55 20 1 1 0 1 0 55 18zM58 27A1 1 0 1 0 58 29 1 1 0 1 0 58 27zM61 24A1 1 0 1 0 61 26 1 1 0 1 0 61 24zM55 24A1 1 0 1 0 55 26 1 1 0 1 0 55 24zM58 33A1 1 0 1 0 58 35 1 1 0 1 0 58 33zM61 30A1 1 0 1 0 61 32 1 1 0 1 0 61 30zM64 21A1 1 0 1 0 64 23 1 1 0 1 0 64 21zM64 27A1 1 0 1 0 64 29 1 1 0 1 0 64 27zM67 24A1 1 0 1 0 67 26 1 1 0 1 0 67 24zM64 33A1 1 0 1 0 64 35 1 1 0 1 0 64 33zM67 30A1 1 0 1 0 67 32 1 1 0 1 0 67 30zM70 33A1 1 0 1 0 70 35 1 1 0 1 0 70 33zM55 30A1 1 0 1 0 55 32 1 1 0 1 0 55 30zM58 63A1 1 0 1 0 58 65 1 1 0 1 0 58 63zM61 60A1 1 0 1 0 61 62 1 1 0 1 0 61 60zM55 60A1 1 0 1 0 55 62 1 1 0 1 0 55 60zM55 66A1 1 0 1 0 55 68 1 1 0 1 0 55 66zM10 39A1 1 0 1 0 10 41 1 1 0 1 0 10 39zM13 36A1 1 0 1 0 13 38 1 1 0 1 0 13 36zM13 42A1 1 0 1 0 13 44 1 1 0 1 0 13 42zM16 45A1 1 0 1 0 16 47 1 1 0 1 0 16 45zM16 51A1 1 0 1 0 16 53 1 1 0 1 0 16 51zM13 24A1 1 0 1 0 13 26 1 1 0 1 0 13 24zM10 33A1 1 0 1 0 10 35 1 1 0 1 0 10 33zM13 30A1 1 0 1 0 13 32 1 1 0 1 0 13 30zM16 21A1 1 0 1 0 16 23 1 1 0 1 0 16 21zM16 27A1 1 0 1 0 16 29 1 1 0 1 0 16 27zM16 33A1 1 0 1 0 16 35 1 1 0 1 0 16 33zM22 45A1 1 0 1 0 22 47 1 1 0 1 0 22 45zM25 42A1 1 0 1 0 25 44 1 1 0 1 0 25 42zM19 42A1 1 0 1 0 19 44 1 1 0 1 0 19 42zM22 51A1 1 0 1 0 22 53 1 1 0 1 0 22 51zM25 48A1 1 0 1 0 25 50 1 1 0 1 0 25 48zM19 48A1 1 0 1 0 19 50 1 1 0 1 0 19 48zM22 57A1 1 0 1 0 22 59 1 1 0 1 0 22 57zM25 54A1 1 0 1 0 25 56 1 1 0 1 0 25 54zM28 45A1 1 0 1 0 28 47 1 1 0 1 0 28 45zM28 51A1 1 0 1 0 28 53 1 1 0 1 0 28 51zM31 48A1 1 0 1 0 31 50 1 1 0 1 0 31 48zM28 57A1 1 0 1 0 28 59 1 1 0 1 0 28 57zM31 54A1 1 0 1 0 31 56 1 1 0 1 0 31 54zM19 54A1 1 0 1 0 19 56 1 1 0 1 0 19 54zM22 15A1 1 0 1 0 22 17 1 1 0 1 0 22 15zM25 12A1 1 0 1 0 25 14 1 1 0 1 0 25 12zM22 21A1 1 0 1 0 22 23 1 1 0 1 0 22 21zM25 18A1 1 0 1 0 25 20 1 1 0 1 0 25 18zM19 18A1 1 0 1 0 19 20 1 1 0 1 0 19 18zM22 27A1 1 0 1 0 22 29 1 1 0 1 0 22 27zM25 24A1 1 0 1 0 25 26 1 1 0 1 0 25 24zM19 24A1 1 0 1 0 19 26 1 1 0 1 0 19 24zM28 15A1 1 0 1 0 28 17 1 1 0 1 0 28 15zM31 12A1 1 0 1 0 31 14 1 1 0 1 0 31 12zM28 21A1 1 0 1 0 28 23 1 1 0 1 0 28 21zM31 18A1 1 0 1 0 31 20 1 1 0 1 0 31 18zM28 27A1 1 0 1 0 28 29 1 1 0 1 0 28 27zM31 24A1 1 0 1 0 31 26 1 1 0 1 0 31 24zM34 21A1 1 0 1 0 34 23 1 1 0 1 0 34 21zM40 9A1 1 0 1 0 40 11 1 1 0 1 0 40 9zM19 30A1 1 0 1 0 19 32 1 1 0 1 0 19 30zM16 39A1 1 0 1 0 16 41 1 1 0 1 0 16 39zM19 36A1 1 0 1 0 19 38 1 1 0 1 0 19 36zM25 30A1 1 0 1 0 25 32 1 1 0 1 0 25 30zM22 33A1 1 0 1 0 22 35 1 1 0 1 0 22 33zM46 15A1 1 0 1 0 46 17 1 1 0 1 0 46 15zM40 21A1 1 0 1 0 40 23 1 1 0 1 0 40 21zM31 30A1 1 0 1 0 31 32 1 1 0 1 0 31 30zM34 27A1 1 0 1 0 34 29 1 1 0 1 0 34 27zM37 24A1 1 0 1 0 37 26 1 1 0 1 0 37 24zM22 39A1 1 0 1 0 22 41 1 1 0 1 0 22 39zM28 33A1 1 0 1 0 28 35 1 1 0 1 0 28 33zM25 36A1 1 0 1 0 25 38 1 1 0 1 0 25 36zM46 21A1 1 0 1 0 46 23 1 1 0 1 0 46 21zM49 18A1 1 0 1 0 49 20 1 1 0 1 0 49 18zM46 9A1 1 0 1 0 46 11 1 1 0 1 0 46 9zM49 12A1 1 0 1 0 49 14 1 1 0 1 0 49 12zM52 15A1 1 0 1 0 52 17 1 1 0 1 0 52 15zM55 12A1 1 0 1 0 55 14 1 1 0 1 0 55 12zM43 24A1 1 0 1 0 43 26 1 1 0 1 0 43 24zM34 33A1 1 0 1 0 34 35 1 1 0 1 0 34 33zM37 30A1 1 0 1 0 37 32 1 1 0 1 0 37 30zM40 27A1 1 0 1 0 40 29 1 1 0 1 0 40 27zM31 36A1 1 0 1 0 31 38 1 1 0 1 0 31 36zM28 39A1 1 0 1 0 28 41 1 1 0 1 0 28 39zM46 27A1 1 0 1 0 46 29 1 1 0 1 0 46 27zM37 36A1 1 0 1 0 37 38 1 1 0 1 0 37 36zM40 33A1 1 0 1 0 40 35 1 1 0 1 0 40 33zM43 30A1 1 0 1 0 43 32 1 1 0 1 0 43 30zM34 39A1 1 0 1 0 34 41 1 1 0 1 0 34 39zM31 42A1 1 0 1 0 31 44 1 1 0 1 0 31 42zM40 39A1 1 0 1 0 40 41 1 1 0 1 0 40 39zM43 36A1 1 0 1 0 43 38 1 1 0 1 0 43 36zM37 42A1 1 0 1 0 37 44 1 1 0 1 0 37 42zM34 45A1 1 0 1 0 34 47 1 1 0 1 0 34 45zM25 60A1 1 0 1 0 25 62 1 1 0 1 0 25 60zM28 63A1 1 0 1 0 28 65 1 1 0 1 0 28 63zM31 60A1 1 0 1 0 31 62 1 1 0 1 0 31 60zM31 66A1 1 0 1 0 31 68 1 1 0 1 0 31 66zM13 48A1 1 0 1 0 13 50 1 1 0 1 0 13 48zM10 45A1 1 0 1 0 10 47 1 1 0 1 0 10 45zM16 57A1 1 0 1 0 16 59 1 1 0 1 0 16 57zM13 54A1 1 0 1 0 13 56 1 1 0 1 0 13 54zM19 60A1 1 0 1 0 19 62 1 1 0 1 0 19 60zM22 63A1 1 0 1 0 22 65 1 1 0 1 0 22 63zM25 66A1 1 0 1 0 25 68 1 1 0 1 0 25 66zM34 63A1 1 0 1 0 34 65 1 1 0 1 0 34 63zM34 69A1 1 0 1 0 34 71 1 1 0 1 0 34 69z"/><path fill="none" stroke="#000000" stroke-miterlimit="10" stroke-width="2" d="M40 8A32 32 0 1 0 40 72A32 32 0 1 0 40 8Z"/></svg>