<svg fill="#000000" xmlns="http://www.w3.org/2000/svg"  viewBox="0 0 128 128" width="180px" height="180px"><path d="M78 58A3 3 0 1 0 78 64 3 3 0 1 0 78 58zM29 127h60c1.7 0 3-1.3 3-3s-1.3-3-3-3H29c-1.7 0-3 1.3-3 3S27.3 127 29 127zM104 121A3 3 0 1 0 104 127 3 3 0 1 0 104 121z"/><path d="M113.8,53.3L85.7,25.1c-1.2-1.2-3.1-1.2-4.2,0c-1.2,1.2-1.2,3.1,0,4.2l6.3,6.3c-2.7,1.1-6.8,2.5-11.6,2.9c-6.7,0.6-15.5-0.9-18.8-1.5c-1.7-0.3-2.8-0.5-3.9,0.6c-0.3,0.3-0.6,0.7-0.7,1.1L38,81.7c-0.5,1.6,0.3,3.3,1.9,3.8c0.3,0.1,0.7,0.2,1,0.2c1.2,0,2.4-0.8,2.8-2l14-40.6c4.1,0.7,12.4,2,19.1,1.4c5.2-0.5,10.5-2,15.6-4.4l6.6,6.6c-2.3,4.4-3.7,9.1-4.1,14.1c-0.7,7.2,0.6,16.4,1.3,20.7L43.4,99.7l28.9-28.9c1.2-1.2,1.2-3.1,0-4.2c-1.2-1.2-3.1-1.2-4.2,0l-37.9,37.9c-0.8,0.7-1.2,1.6-1.2,2.6c0,1.7,1.4,3.2,3,3c0.4,0,0.7-0.1,1-0.2c0,0,67.4-23.4,67.4-23.4c0.4-0.1,0.8-0.4,1.1-0.7c1.1-1.1,1-2.1,0.6-4.1c-0.6-3.6-2-13.1-1.4-20.2c0.3-3.6,1.2-7,2.6-10.2l6.4,6.4c0.5,0.3,1.2,0.6,2,0.6s1.5-0.3,2.1-0.9C115,56.3,115,54.4,113.8,53.3z"/></svg>