<svg fill="#000000" xmlns="http://www.w3.org/2000/svg"  viewBox="0 0 50 50" width="150px" height="150px"><path fill="none" stroke="#000000" stroke-linecap="round" stroke-linejoin="round" stroke-miterlimit="10" stroke-width="2" d="M48 2L48 48 2 48z"/><path fill="none" stroke="#000000" stroke-miterlimit="10" stroke-width="2" d="M38 48L38 38 48 38"/><path d="M48 46A2 2 0 1 0 48 50 2 2 0 1 0 48 46zM2 46A2 2 0 1 0 2 50 2 2 0 1 0 2 46zM48 0A2 2 0 1 0 48 4 2 2 0 1 0 48 0z"/><path fill="none" stroke="#000000" stroke-miterlimit="10" stroke-width="2" d="M15,48.138c0-3.569-1.446-6.799-3.785-9.138"/></svg>