<svg fill="#000000" xmlns="http://www.w3.org/2000/svg"  viewBox="0 0 26 26" width="180px" height="180px"><path d="M6 21H20V23H6zM17.013 3v8.963c0 .536-.028 1.08-.084 1.631-.056.551-.215 1.047-.478 1.486-.262.439-.66.801-1.194 1.083-.534.283-1.286.425-2.258.425s-1.724-.142-2.258-.425c-.533-.283-.932-.644-1.194-1.083-.263-.439-.422-.934-.478-1.486-.056-.551-.084-1.094-.084-1.631V3H6v9.879c0 1.028.167 1.921.502 2.681.334.759.807 1.396 1.421 1.91.613.514 1.35.897 2.21 1.151C10.993 18.873 11.948 19 13 19s2.007-.127 2.867-.38c.861-.253 1.597-.637 2.21-1.151.613-.514 1.087-1.151 1.421-1.91C19.832 14.8 20 13.906 20 12.879V3H17.013z"/></svg>